HIERARCHY
ROOT Pelvis
{
	OFFSET 0.000000 0.941512 0.000000
	CHANNELS 6 Xposition Yposition Zposition Zrotation Yrotation Xrotation 
	JOINT Pelvis_L_Hip
	{
		OFFSET 0.000000 0.000000 0.000000
		CHANNELS 3 Zrotation Yrotation Xrotation
		JOINT L_Hip
		{
			OFFSET 0.062321 -0.080322 -0.016990
			CHANNELS 3 Zrotation Yrotation Xrotation
			JOINT L_Knee
			{
				OFFSET 0.093051 -0.381305 -0.029784
				CHANNELS 3 Zrotation Yrotation Xrotation
				JOINT L_Ankle
				{
					OFFSET -0.010371 -0.431000 -0.033614
					CHANNELS 3 Zrotation Yrotation Xrotation
					End Site #name: L_Foot
					{
						OFFSET 0.069299 -0.038670 0.119418
					}
				}
			}
		}
	}
	JOINT Pelvis_R_Hip
	{
		OFFSET 0.000000 0.000000 0.000000
		CHANNELS 3 Zrotation Yrotation Xrotation
		JOINT R_Hip
		{
			OFFSET -0.055334 -0.094904 -0.002373
			CHANNELS 3 Zrotation Yrotation Xrotation
			JOINT R_Knee
			{
				OFFSET -0.064207 -0.384370 -0.019592
				CHANNELS 3 Zrotation Yrotation Xrotation
				JOINT R_Ankle
				{
					OFFSET 0.025418 -0.419734 -0.065953
					CHANNELS 3 Zrotation Yrotation Xrotation
					End Site #name: R_Foot
					{
						OFFSET -0.057233 -0.039888 0.132134
					}
				}
			}
		}
	}
	JOINT Pelvis_Spine1
	{
		OFFSET 0.000000 0.000000 0.000000
		CHANNELS 3 Zrotation Yrotation Xrotation
		JOINT Spine1
		{
			OFFSET -0.005562 0.124093 -0.043360
			CHANNELS 3 Zrotation Yrotation Xrotation
			JOINT Spine2
			{
				OFFSET 0.012244 0.139499 0.029894
				CHANNELS 3 Zrotation Yrotation Xrotation
				JOINT Spine3
				{
					OFFSET -0.002556 0.056561 0.009225
					CHANNELS 3 Zrotation Yrotation Xrotation
					JOINT Spine3_Neck
					{
						OFFSET 0.000000 0.000000 0.000000
						CHANNELS 3 Zrotation Yrotation Xrotation
						JOINT Neck
						{
							OFFSET -0.005205 0.217920 -0.024551
							CHANNELS 3 Zrotation Yrotation Xrotation
							End Site #name: Head
							{
								OFFSET 0.002365 0.091850 0.046637
							}
						}
					}
					JOINT Spine3_L_Collar
					{
						OFFSET 0.000000 0.000000 0.000000
						CHANNELS 3 Zrotation Yrotation Xrotation
						JOINT L_Collar
						{
							OFFSET 0.072225 0.116603 -0.009480
							CHANNELS 3 Zrotation Yrotation Xrotation
							JOINT L_Shoulder
							{
								OFFSET 0.115937 -0.058643 -0.021018
								CHANNELS 3 Zrotation Yrotation Xrotation
								JOINT L_Elbow
								{
									OFFSET 0.021994 -0.254722 -0.024492
									CHANNELS 3 Zrotation Yrotation Xrotation
									End Site #name: L_Wrist
									{
										OFFSET 0.048810 -0.240214 0.103329
									}
								}
							}
						}
					}
					JOINT Spine3_R_Collar
					{
						OFFSET 0.000000 0.000000 0.000000
						CHANNELS 3 Zrotation Yrotation Xrotation
						JOINT R_Collar
						{
							OFFSET -0.073372 0.120704 -0.024611
							CHANNELS 3 Zrotation Yrotation Xrotation
							JOINT R_Shoulder
							{
								OFFSET -0.108089 -0.054969 -0.020504
								CHANNELS 3 Zrotation Yrotation Xrotation
								JOINT R_Elbow
								{
									OFFSET -0.033684 -0.260739 0.009889
									CHANNELS 3 Zrotation Yrotation Xrotation
									End Site #name: R_Wrist
									{
										OFFSET -0.067980 -0.232763 0.118463
									}
								}
							}
						}
					}
				}
			}
		}
	}
}
MOTION
Frames: 8
Frame Time: 0.041667
0.000000 0.951583 0.000000 -5.173982 -3.015846 6.744115 0.000000 0.000000 0.000000 -0.313916 -1.604586 -6.687769 11.166859 -1.642211 6.210994 -3.484711 -2.678919 4.525811 0.000000 0.000000 0.000000 4.766820 0.951830 -6.019476 -8.914205 1.004936 -2.801681 4.047693 -0.313978 9.023816 0.000000 0.000000 0.000000 7.025826 -0.899049 -4.771576 -8.310915 3.984681 20.124520 5.250022 3.896104 -30.147836 0.000000 0.000000 0.000000 -8.260384 5.258125 21.602303 0.000000 0.000000 0.000000 49.716628 -2.096839 11.235728 -11.505600 -1.733500 -12.166582 3.830699 6.969101 36.759188 0.000000 0.000000 0.000000 -48.727315 2.051638 11.878985 26.595917 4.308585 -5.468790 -3.302955 -9.153526 33.179758 
0.000173 0.951831 -0.000368 -5.157160 -3.000181 6.513050 0.000000 0.000000 0.000000 -0.368324 -1.543449 -6.439212 11.244436 -1.642823 6.132177 -3.596539 -2.839459 4.618706 0.000000 0.000000 0.000000 4.798630 0.897808 -5.757400 -9.052078 1.013712 -2.874138 4.150207 -0.216181 9.165997 0.000000 0.000000 0.000000 6.970221 -0.912099 -4.593941 -8.343625 3.992970 20.108678 5.359412 3.927567 -29.942086 0.000000 0.000000 0.000000 -8.356695 5.345512 21.807957 0.000000 0.000000 0.000000 49.570823 -1.992492 11.302696 -11.473647 -1.733855 -12.199490 3.865726 6.941878 36.529661 0.000000 0.000000 0.000000 -48.554947 1.950659 11.907008 26.484587 4.319824 -5.553602 -3.255990 -9.102630 32.987370 
0.000376 0.951919 -0.000873 -5.152744 -2.935915 6.329557 0.000000 0.000000 0.000000 -0.386135 -1.516704 -6.330243 11.249549 -1.648340 6.171932 -3.604337 -2.938461 4.569643 0.000000 0.000000 0.000000 4.797931 0.865297 -5.595456 -9.047469 1.016832 -2.851386 4.117978 -0.265775 9.145766 0.000000 0.000000 0.000000 6.954731 -0.913845 -4.544095 -8.273309 3.997903 20.340214 5.331948 3.884330 -30.005523 0.000000 0.000000 0.000000 -8.258662 5.289367 22.029528 0.000000 0.000000 0.000000 49.576502 -2.109370 11.169157 -11.461288 -1.715595 -12.108035 3.778244 6.939415 36.569887 0.000000 0.000000 0.000000 -48.569453 2.010720 11.834270 26.453603 4.322362 -5.560566 -3.253925 -9.069219 32.815677 
0.000459 0.951930 -0.001718 -5.123131 -2.920913 6.336839 0.000000 0.000000 0.000000 -0.421345 -1.525185 -6.369565 11.264272 -1.642284 6.104523 -3.643441 -2.961241 4.621601 0.000000 0.000000 0.000000 4.764981 0.875329 -5.640468 -9.058256 1.013481 -2.882722 4.127449 -0.284040 9.181934 0.000000 0.000000 0.000000 6.952011 -0.911087 -4.559356 -8.276560 4.005789 20.390655 5.322395 3.883314 -30.029808 0.000000 0.000000 0.000000 -8.321783 5.321086 21.889255 0.000000 0.000000 0.000000 49.587476 -2.175964 11.095303 -11.466877 -1.690203 -11.978260 3.796061 6.925580 36.443931 0.000000 0.000000 0.000000 -48.574347 2.092537 11.732299 26.380946 4.272008 -5.453070 -3.311844 -9.051951 32.704694 
0.000540 0.951980 -0.002488 -5.101764 -2.903823 6.392183 0.000000 0.000000 0.000000 -0.448537 -1.547803 -6.466597 11.281568 -1.638939 6.059093 -3.678483 -2.967639 4.676546 0.000000 0.000000 0.000000 4.742178 0.899042 -5.752742 -9.071866 1.015837 -2.880827 4.122847 -0.336352 9.216074 0.000000 0.000000 0.000000 6.983788 -0.918496 -4.554364 -8.272351 3.987187 20.274259 5.299018 3.844343 -30.057745 0.000000 0.000000 0.000000 -8.386489 5.361222 21.785750 0.000000 0.000000 0.000000 49.673544 -2.284500 10.985776 -11.504723 -1.659581 -11.810454 3.741842 6.947762 36.654992 0.000000 0.000000 0.000000 -48.676159 2.163394 11.700966 26.308151 4.269146 -5.476177 -3.278743 -9.079453 32.866916 
0.000672 0.951964 -0.003021 -5.063722 -2.881312 6.368507 0.000000 0.000000 0.000000 -0.485921 -1.548872 -6.475195 11.272635 -1.634848 6.033738 -3.694235 -2.985575 4.691196 0.000000 0.000000 0.000000 4.707087 0.900169 -5.754519 -9.093413 1.017484 -2.889562 4.106751 -0.365490 9.208002 0.000000 0.000000 0.000000 7.002433 -0.917482 -4.581329 -8.249489 3.985053 20.321660 5.194269 3.786773 -30.143946 0.000000 0.000000 0.000000 -8.282236 5.290596 21.854854 0.000000 0.000000 0.000000 49.689432 -2.400471 10.849881 -11.507367 -1.629688 -11.650621 3.727916 6.975175 36.869419 0.000000 0.000000 0.000000 -48.791233 2.309632 11.574937 26.341207 4.210091 -5.304850 -3.282129 -9.133402 33.120408 
0.000847 0.952033 -0.003501 -5.027887 -2.850577 6.453794 0.000000 0.000000 0.000000 -0.533139 -1.580755 -6.612673 11.286443 -1.636245 6.031694 -3.725331 -2.988696 4.740719 0.000000 0.000000 0.000000 4.667898 0.925082 -5.872972 -9.125222 1.020988 -2.895738 4.123826 -0.382638 9.261415 0.000000 0.000000 0.000000 7.028032 -0.931449 -4.527550 -8.330964 3.975053 20.049243 5.153127 3.764693 -30.095634 0.000000 0.000000 0.000000 -8.010636 5.081530 21.672210 0.000000 0.000000 0.000000 49.722628 -2.453304 10.797162 -11.651101 -1.616431 -11.556839 3.761230 6.988583 36.961659 0.000000 0.000000 0.000000 -48.942844 2.340111 11.599681 26.386559 4.139817 -5.116893 -3.152476 -9.158271 33.346414 
0.000956 0.952182 -0.003721 -5.026205 -2.828116 6.654542 0.000000 0.000000 0.000000 -0.542548 -1.632483 -6.828442 11.317198 -1.634880 5.986112 -3.797182 -2.982639 4.865498 0.000000 0.000000 0.000000 4.660414 0.966644 -6.076723 -9.147201 1.015668 -2.954880 4.176562 -0.393971 9.384461 0.000000 0.000000 0.000000 7.032257 -0.942030 -4.480966 -8.396307 3.931654 19.581210 5.161772 3.739426 -29.914759 0.000000 0.000000 0.000000 -7.545618 4.717130 21.137853 0.000000 0.000000 0.000000 49.805606 -2.450994 10.816214 -11.673320 -1.598105 -11.477087 3.722169 7.009564 37.129302 0.000000 0.000000 0.000000 -49.101440 2.307110 11.711192 26.383991 4.072345 -4.975370 -3.107612 -9.173945 33.458781 
